<svg width="14" height="14" viewBox="0 0 14 14" fill="none" xmlns="http://www.w3.org/2000/svg">
<path d="M13.295 2.115C13.6844 1.72564 13.6844 1.09436 13.295 0.705V0.705C12.9056 0.315639 12.2744 0.315639 11.885 0.705L8.41421 4.17579C7.63316 4.95684 6.36683 4.95684 5.58579 4.17579L2.115 0.705C1.72564 0.315639 1.09436 0.315639 0.705 0.705V0.705C0.315639 1.09436 0.315639 1.72564 0.705 2.115L4.17579 5.58579C4.95684 6.36684 4.95684 7.63317 4.17579 8.41421L0.705 11.885C0.315639 12.2744 0.315639 12.9056 0.705 13.295V13.295C1.09436 13.6844 1.72564 13.6844 2.115 13.295L5.58579 9.82421C6.36684 9.04316 7.63317 9.04316 8.41421 9.82421L11.885 13.295C12.2744 13.6844 12.9056 13.6844 13.295 13.295V13.295C13.6844 12.9056 13.6844 12.2744 13.295 11.885L9.82421 8.41421C9.04316 7.63316 9.04316 6.36683 9.82421 5.58579L13.295 2.115Z" fill="#E8D9D9"/>
</svg>
