<svg width="19" height="13" viewBox="0 0 19 13" fill="none" xmlns="http://www.w3.org/2000/svg">
<path d="M0.126831 1.16925C0.126831 0.616968 0.574546 0.169252 1.12683 0.169252H17.1268C17.6791 0.169252 18.1268 0.616968 18.1268 1.16925V1.16925C18.1268 1.72154 17.6791 2.16925 17.1268 2.16925H1.12683C0.574547 2.16925 0.126831 1.72154 0.126831 1.16925V1.16925ZM0.126831 6.16925C0.126831 5.61697 0.574546 5.16925 1.12683 5.16925H17.1268C17.6791 5.16925 18.1268 5.61697 18.1268 6.16925V6.16925C18.1268 6.72154 17.6791 7.16925 17.1268 7.16925H1.12683C0.574547 7.16925 0.126831 6.72154 0.126831 6.16925V6.16925ZM0.126831 11.1693C0.126831 10.617 0.574546 10.1693 1.12683 10.1693H17.1268C17.6791 10.1693 18.1268 10.617 18.1268 11.1693V11.1693C18.1268 11.7215 17.6791 12.1693 17.1268 12.1693H1.12683C0.574547 12.1693 0.126831 11.7215 0.126831 11.1693V11.1693Z" fill="#E8D9D9"/>
</svg>
